PathFileType	4	(X/Y/Z)	\\147.46.242.158\로컬 디스크 (e)\MOCAP Data\Iguana Capture\iguana\Project 2\Capture day 5 after broken\Session 1\Take01 ddong.trc
DataRate	CameraRate	NumFrames	NumMarkers	Units	OrigDataRate	OrigDataStartFrame	OrigNumFrames
120.0	120.0	9	23	mm	120.0	700	23111
Frame#	Time	ana:head1			ana:head2			ana:bone1			ana:bone2			ana:bone3			ana:tail1			ana:tail2			ana:tail3			ana:tail4			ana:Rforefoot1			ana:Rforefoot2			ana:Rforefoot3			ana:Lforefoot1			ana:Lforefoot2			ana:Lforefoot3			ana:RhindLeg1			ana:RhindLeg2			ana:RhindLeg3			ana:RhindLeg4			ana:LhindLeg1			ana:LhindLeg2			ana:LhindLeg3			ana:LhindLeg4			
		X1	Y1	Z1	X2	Y2	Z2	X3	Y3	Z3	X4	Y4	Z4	X5	Y5	Z5	X6	Y6	Z6	X7	Y7	Z7	X8	Y8	Z8	X9	Y9	Z9	X10	Y10	Z10	X11	Y11	Z11	X12	Y12	Z12	X13	Y13	Z13	X14	Y14	Z14	X15	Y15	Z15	X16	Y16	Z16	X17	Y17	Z17	X18	Y18	Z18	X19	Y19	Z19	X20	Y20	Z20	X21	Y21	Z21	X22	Y22	Z22	X23	Y23	Z23	

7926	66.042	-89.50604	454.39987	51.95280	-79.76942	449.58444	52.37717	-59.69398	443.11639	43.23222	-32.37406	438.07733	40.56672	0.02968	424.17111	34.63733	28.93382	409.54587	27.92610	58.59212	395.63223	18.08201	91.48462	382.56223	8.37904	127.30350	361.40942	6.07374	-61.45176	452.52194	31.13830	-52.78345	464.28741	31.16232	-66.32600	472.65378	22.03968	-66.03562	429.11356	27.12170	-62.63229	418.56186	20.91280	-68.32005	425.12872	10.18050	5.39373	432.47577	25.70564	9.18762	447.61896	17.53577	19.42236	436.58475	6.91500	9.77498	442.38803	2.75501	-4.81773	414.32367	30.19238	-14.81024	402.74298	34.33061	0.13253	392.44180	28.53149	-5.22709	382.01413	24.04361	
7927	66.050	-90.28062	454.49167	51.92494	-80.53802	449.68188	52.40294	-60.45555	443.39551	43.14964	-33.09743	438.69180	40.54689	-0.69641	424.58636	34.72023	27.92629	409.46216	28.06524	57.62574	395.57788	18.26888	90.60016	382.75397	8.50807	126.57392	361.88803	6.06531	-62.52251	452.79709	30.85163	-54.79546	465.12430	30.36800	-69.66296	472.28949	22.43758	-66.53809	429.24637	27.12106	-63.02926	418.78323	21.10853	-68.45245	425.31152	10.27710	4.82089	432.70590	25.72520	9.06641	447.70743	17.55070	19.30769	436.74326	7.17706	9.59741	442.40485	2.89742	-5.91681	414.83090	30.34008	-17.22504	404.33435	34.64787	-3.73875	393.10571	28.31916	-10.52669	383.51697	24.85979	
7928	66.058	-91.03388	454.58310	51.90894	-81.29064	449.77283	52.43958	-61.21293	443.64905	43.07974	-33.82708	439.24066	40.53885	-1.44687	424.92572	34.80987	26.90207	409.32932	28.19424	56.63955	395.47922	18.44596	89.69872	382.91455	8.62483	125.84178	362.36545	6.05353	-63.59700	453.06812	30.57092	-56.88694	465.90585	29.56394	-72.82433	471.75052	22.68712	-67.04029	429.36786	27.13344	-63.42912	418.99976	21.29247	-68.36034	425.33286	10.10855	4.22241	432.87857	25.76707	8.90743	447.72412	17.60501	19.14671	436.85458	7.43033	9.42483	442.39587	3.00979	-7.03109	415.28098	30.47478	-19.54655	405.89355	34.82121	-7.86149	393.65588	27.96388	-15.97738	385.12952	25.41982	
7929	66.067	-91.77551	454.67294	51.91297	-82.03707	449.85614	52.49019	-61.97190	443.87686	43.02773	-34.56709	439.72937	40.54106	-2.23062	425.19742	34.89309	25.85275	409.15247	28.30049	55.62155	395.33475	18.60087	88.76942	383.03796	8.72163	125.09934	362.84402	6.03874	-64.69536	453.32785	30.31349	-59.08229	466.61923	28.78577	-75.83952	471.14233	22.80987	-67.54433	429.47366	27.16010	-63.81705	419.20279	21.46030	-68.06123	425.18622	9.70013	3.59420	433.00058	25.81887	8.71535	447.68411	17.68768	18.95352	436.89664	7.65664	9.27857	442.36441	3.08021	-8.16923	415.68073	30.58284	-21.76842	407.39612	34.84452	-12.18211	394.14941	27.46994	-21.46554	386.85886	25.68170	
7930	66.075	-92.51531	454.75903	51.94306	-82.78661	449.93027	52.55685	-62.73782	444.07925	42.99689	-35.32106	440.16537	40.55146	-3.05306	425.41257	34.95813	24.77188	408.93875	28.37444	54.56208	395.14435	18.72423	87.80332	383.11877	8.79321	124.33994	363.32547	6.02172	-65.83302	453.56830	30.09160	-61.39627	467.24503	28.05730	-78.74233	470.55164	22.82469	-68.05225	429.56134	27.20019	-64.18130	419.38574	21.60925	-67.59590	424.87994	9.10011	2.93399	433.08066	25.86941	8.49414	447.60294	17.78901	18.74360	436.85806	7.84456	9.17283	442.31830	3.10528	-9.33720	416.03864	30.65277	-23.88899	408.82010	34.71952	-16.62854	394.64761	26.84454	-26.87663	388.70059	25.61677	
7931	66.083	-93.26302	454.83881	52.00197	-83.54789	449.99402	52.63986	-63.51598	444.25720	42.98795	-36.09252	440.55710	40.56755	-3.91630	425.58411	34.99623	23.65542	408.69720	28.41102	53.45462	394.91000	18.81105	86.79411	383.15326	8.83753	123.55800	363.81073	6.00365	-67.01979	453.78207	29.91121	-63.83121	467.76056	27.38879	-81.56511	470.03906	22.74225	-68.56686	429.63071	27.25080	-64.51492	419.54477	21.73818	-67.02363	424.43597	8.37371	2.24084	433.12845	25.91030	8.24594	447.49466	17.90172	18.53099	436.73981	7.99125	9.11269	442.26788	3.08983	-10.53784	416.36404	30.67668	-25.91009	410.14667	34.45517	-21.11367	395.20758	26.09680	-32.10167	390.63638	25.21214	
7932	66.092	-94.02808	454.90991	52.08842	-84.32903	450.04675	52.73719	-64.31200	444.41287	42.99878	-36.88553	440.91339	40.58656	-4.81982	425.72556	35.00265	22.50180	408.43866	28.41029	52.29624	394.63644	18.86151	85.73846	383.14056	8.85632	122.74899	364.30029	5.98607	-68.25960	453.96387	29.77147	-66.37559	468.14362	26.77690	-84.33324	469.63522	22.56152	-69.09233	429.68423	27.30717	-64.81714	419.67947	21.84759	-66.41483	423.88779	7.59508	1.51448	433.15445	25.93699	7.97032	447.37091	18.02162	18.32604	436.55475	8.10297	9.09382	442.22394	3.04543	-11.77082	416.66583	30.65109	-27.83573	411.36026	34.06642	-25.54046	395.87457	25.23693	-37.04315	392.63336	24.47199	
7933	66.100	-94.81962	454.97110	52.19684	-85.13773	450.08920	52.84415	-65.13216	444.54956	43.02444	-37.70509	441.24271	40.60559	-5.76142	425.85031	34.97724	21.31179	408.17517	28.37735	51.08767	394.33151	18.88098	84.63599	383.08344	8.85489	121.90919	364.79364	5.97070	-69.55080	454.11206	29.66499	-69.00404	468.37714	26.20643	-87.06067	469.34189	22.26900	-69.63473	429.72678	27.36327	-65.09383	419.79288	21.93927	-65.84223	423.27679	6.83844	0.75455	433.16846	25.94919	7.66403	447.24014	18.14773	18.13368	436.32574	8.19411	9.10385	442.19574	2.98788	-13.03303	416.95160	30.57729	-29.67080	412.44852	33.57245	-29.80828	396.67584	24.27564	-41.61974	394.64526	23.41762	
7934	66.108	-95.64642	455.02277	52.31774	-85.98151	450.12344	52.95348	-65.98360	444.67191	43.05773	-38.55733	441.55231	40.62190	-6.73822	425.97028	34.92429	20.08803	407.91946	28.32156	49.83293	394.00647	18.87919	83.48907	382.98874	8.84153	121.03527	365.28973	5.95923	-70.88699	454.22906	29.57896	-71.67896	468.45276	25.65333	-89.74704	469.13663	21.84067	-70.20226	429.76501	27.41253	-65.35739	419.89078	22.01582	-65.37172	422.64835	6.16947	-0.03997	433.17957	25.95051	7.32127	447.10782	18.28192	17.95274	436.08139	8.28504	9.12498	442.18918	2.93449	-14.31922	417.22675	30.46096	-31.42000	413.40234	32.99472	-33.82006	397.61655	23.22385	-45.76966	396.61560	22.08618	
